<?xml version="1.0" encoding="UTF-8"?>
<svg version="1.1" xmlns="http://www.w3.org/2000/svg" width="767" height="767">
<path d="M0 0 C3.73061053 0.02278857 7.46007831 0.00921553 11.19064999 -0.01378059 C49.67254521 -0.21393098 87.91917411 5.68560881 124.32128906 18.44335938 C126.55211841 19.20537534 128.8071237 19.8982722 131.07519531 20.54101562 C133.95678074 21.3714151 136.64924021 22.31308768 139.41503906 23.45898438 C142.35676625 24.6648275 145.29565249 25.82886553 148.29003906 26.89648438 C153.48254907 28.83337303 158.46892527 31.21944638 163.47900391 33.58105469 C165.70117469 34.62671824 167.92728203 35.66376851 170.15332031 36.70117188 C181.26504189 41.89810983 192.13670609 47.1306722 202.28222656 54.07617188 C205.88766407 56.44985849 209.68423223 58.46708222 213.47753906 60.52148438 C216.54003906 62.20898437 216.54003906 62.20898437 218.47753906 63.52148438 C218.47753906 64.18148437 218.47753906 64.84148437 218.47753906 65.52148438 C219.50234375 65.86759766 219.50234375 65.86759766 220.54785156 66.22070312 C224.15645204 67.82292174 227.19071493 70.00548265 230.35253906 72.33398438 C231.23232422 72.97303711 231.23232422 72.97303711 232.12988281 73.625 C233.31185809 74.48355567 234.49124395 75.34568787 235.66796875 76.21142578 C236.92647258 77.12253365 238.19922427 78.01414965 239.48242188 78.89013672 C241.18015598 80.05428504 242.83324237 81.28300515 244.47753906 82.52148438 C244.47753906 83.18148437 244.47753906 83.84148437 244.47753906 84.52148438 C245.40566406 84.98554688 245.40566406 84.98554688 246.35253906 85.45898438 C247.72753906 86.14648438 249.10253906 86.83398438 250.47753906 87.52148438 C250.47753906 88.18148437 250.47753906 88.84148437 250.47753906 89.52148438 C251.37472656 89.95460937 251.37472656 89.95460937 252.29003906 90.39648438 C254.47753906 91.52148438 254.47753906 91.52148438 257.47753906 93.52148438 C257.47753906 94.18148437 257.47753906 94.84148437 257.47753906 95.52148438 C258.01378906 95.74835938 258.55003906 95.97523437 259.10253906 96.20898438 C263.32744473 98.54380066 267.32647035 101.84523754 270.47753906 105.52148438 C270.47753906 106.18148437 270.47753906 106.84148437 270.47753906 107.52148438 C271.29931641 107.83666016 271.29931641 107.83666016 272.13769531 108.15820312 C275.32041842 110.01257769 277.50997406 112.59809888 279.91503906 115.33398438 C280.8501019 116.38317417 281.78629182 117.43136062 282.72363281 118.47851562 C283.17722168 118.98850098 283.63081055 119.49848633 284.09814453 120.02392578 C285.45330711 121.49517662 286.88929654 122.89063738 288.32519531 124.28320312 C290.47753906 126.52148438 290.47753906 126.52148438 290.47753906 128.52148438 C291.46753906 128.85148438 292.45753906 129.18148437 293.47753906 129.52148438 C294.99970863 131.1947307 296.44941412 132.9347257 297.85253906 134.70898438 C298.64273438 135.7015625 299.43292969 136.69414062 300.24707031 137.71679688 C300.983125 138.64234375 301.71917969 139.56789062 302.47753906 140.52148438 C303.49376892 141.71292628 304.51343103 142.90147311 305.54003906 144.08398438 C307.47753906 146.52148437 307.47753906 146.52148437 307.47753906 148.52148438 C308.13753906 148.52148438 308.79753906 148.52148438 309.47753906 148.52148438 C311.12680411 150.61397056 312.65683934 152.70536867 314.16503906 154.89648438 C314.61129639 155.53481201 315.05755371 156.17313965 315.51733398 156.83081055 C316.42033065 158.12323973 317.32082161 159.41742336 318.21875 160.71337891 C319.3041605 162.27244605 320.40862007 163.81821979 321.51660156 165.36132812 C324.7831711 169.91581825 327.65559104 174.50832894 330.30175781 179.44726562 C331.39860982 181.38224374 332.58403666 183.1175891 333.91503906 184.89648438 C338.60182618 191.23917104 341.97205034 198.48408365 345.47753906 205.52148438 C346.07050781 206.68421875 346.66347656 207.84695312 347.27441406 209.04492188 C352.02911362 218.39518311 356.41780958 227.84956153 360.47753906 237.52148438 C360.8678833 238.44695068 360.8678833 238.44695068 361.26611328 239.39111328 C372.02843254 265.07190427 379.54495048 292.24802865 384.04003906 319.70898438 C384.15508789 320.40241943 384.27013672 321.09585449 384.38867188 321.81030273 C384.78999258 324.37629703 385.13513641 326.94693649 385.47753906 329.52148438 C385.6510791 330.70887207 385.82461914 331.89625977 386.00341797 333.11962891 C388.04543899 348.42283068 387.78286712 363.83943649 387.73828125 379.24560547 C387.72688739 383.22236736 387.73365839 387.19886161 387.74515915 391.17561436 C387.78418896 407.04541239 387.8095371 422.78573101 385.47753906 438.52148438 C385.33155273 439.56643066 385.18556641 440.61137695 385.03515625 441.68798828 C384.64256179 444.3299559 384.20164171 446.95553701 383.72753906 449.58398438 C383.5605249 450.52242188 383.39351074 451.46085937 383.22143555 452.42773438 C380.32033783 468.26088803 377.02258774 484.12627673 371.61425781 499.31054688 C370.51355587 502.41974618 369.57885289 505.54056437 368.66503906 508.70898438 C364.73326821 521.63907633 359.35895827 534.36195199 353.47753906 546.52148438 C353.05287354 547.40151123 353.05287354 547.40151123 352.61962891 548.29931641 C348.47519085 556.84789061 344.06750949 565.18520708 339.29003906 573.39648438 C337.74376984 576.0624658 336.25535809 578.74814418 334.79003906 581.45898438 C333.00433667 584.70081321 331.03362087 587.68342582 328.78613281 590.62304688 C327.32220548 592.68355803 327.32220548 592.68355803 325.70800781 595.68554688 C323.22176191 600.09401571 320.29973281 604.16262302 317.35253906 608.27148438 C316.28716037 609.76608039 315.22204536 611.26086441 314.15722656 612.75585938 C313.6904248 613.40780273 313.22362305 614.05974609 312.74267578 614.73144531 C311.62739598 616.30945217 310.54941085 617.91367669 309.47753906 619.52148438 C308.81753906 619.52148438 308.15753906 619.52148438 307.47753906 619.52148438 C307.11789062 620.32585937 307.11789062 620.32585937 306.75097656 621.14648438 C305.1320902 624.16575711 303.16217171 626.78443103 301.10253906 629.52148438 C300.33167969 630.55273438 299.56082031 631.58398438 298.76660156 632.64648438 C296.78325909 635.13750836 294.86055943 637.41225784 292.47753906 639.52148438 C291.81753906 639.52148438 291.15753906 639.52148438 290.47753906 639.52148438 C290.25066406 640.07835937 290.02378906 640.63523437 289.79003906 641.20898438 C288.11038034 644.16838308 285.89650679 646.12295863 283.47753906 648.52148438 C282.5288098 649.55255431 281.58752721 650.59051954 280.65332031 651.63476562 C280.18216797 652.16005859 279.71101562 652.68535156 279.22558594 653.2265625 C278.25364744 654.31486914 277.28498587 655.4061097 276.31933594 656.5 C275.07868495 657.8775504 273.78211064 659.20430824 272.47753906 660.52148438 C271.81753906 660.52148438 271.15753906 660.52148438 270.47753906 660.52148438 C270.47753906 661.18148437 270.47753906 661.84148438 270.47753906 662.52148438 C268.83402449 663.88325359 267.1623125 665.21110503 265.47753906 666.52148438 C264.61128906 667.40835938 263.74503906 668.29523437 262.85253906 669.20898438 C260.47753906 671.52148437 260.47753906 671.52148437 257.47753906 672.52148438 C257.14753906 673.51148438 256.81753906 674.50148438 256.47753906 675.52148438 C253.03309462 678.52148438 253.03309462 678.52148438 250.47753906 678.52148438 C250.47753906 679.18148437 250.47753906 679.84148438 250.47753906 680.52148438 C247.0160006 683.52148438 247.0160006 683.52148438 244.47753906 683.52148438 C244.47753906 684.18148437 244.47753906 684.84148438 244.47753906 685.52148438 C242.38508699 687.17072254 240.29364733 688.70084084 238.10253906 690.20898438 C237.46928711 690.65161621 236.83603516 691.09424805 236.18359375 691.55029297 C234.89627059 692.44959781 233.60720618 693.34641529 232.31640625 694.24072266 C230.66449911 695.39126765 229.02706232 696.56252274 227.39160156 697.73632812 C226.07289063 698.68185547 226.07289063 698.68185547 224.72753906 699.64648438 C223.55964844 700.48566406 223.55964844 700.48566406 222.36816406 701.34179688 C220.47753906 702.52148438 220.47753906 702.52148438 218.47753906 702.52148438 C218.47753906 703.18148437 218.47753906 703.84148438 218.47753906 704.52148438 C217.92066406 704.82441406 217.36378906 705.12734375 216.79003906 705.43945312 C210.55942064 708.85997844 204.49436949 712.44948545 198.63378906 716.47460938 C195.5499632 718.47451625 192.47014433 720.10590937 189.16503906 721.70898438 C184.40207984 724.03825835 179.70110427 726.45456082 175.03417969 728.97094727 C167.66114997 732.94376935 160.27832102 736.45039463 152.47753906 739.52148438 C150.35121704 740.41417526 148.2262108 741.31000677 146.10253906 742.20898438 C142.26853331 743.83025127 138.43694107 745.2369807 134.47753906 746.52148438 C133.67558105 746.78856201 132.87362305 747.05563965 132.04736328 747.33081055 C111.54400544 754.15146225 90.84144929 760.10286622 69.47753906 763.52148438 C68.51212692 763.6790773 67.54671478 763.83667023 66.55204773 763.9990387 C47.25543175 767.07595929 28.46721104 768.16331444 8.95507812 768.04296875 C5.22446791 768.02018018 1.49500045 768.03375321 -2.23557091 768.05674934 C-40.75200373 768.25707928 -80.19287774 762.74992698 -116.52246094 749.52148438 C-117.90074678 749.04053606 -119.27971076 748.56152872 -120.65917969 748.08398438 C-128.35829621 745.41046912 -135.99278204 742.64536768 -143.52246094 739.52148438 C-144.41578125 739.16699219 -145.30910156 738.8125 -146.22949219 738.44726562 C-158.76633434 733.39560634 -170.7302869 727.10426426 -182.52246094 720.52148438 C-183.83866118 719.8010558 -185.155084 719.08103377 -186.47167969 718.36132812 C-199.45965261 711.21395805 -199.45965261 711.21395805 -205.04199219 706.61523438 C-206.65533276 705.30531911 -206.65533276 705.30531911 -209.52246094 704.52148438 C-209.52246094 703.86148438 -209.52246094 703.20148437 -209.52246094 702.52148438 C-210.24433594 702.25335937 -210.96621094 701.98523438 -211.70996094 701.70898438 C-214.52012477 700.52247076 -217.0066265 699.24662799 -219.52246094 697.52148438 C-219.52246094 696.86148438 -219.52246094 696.20148437 -219.52246094 695.52148438 C-220.57626953 695.16183594 -220.57626953 695.16183594 -221.65136719 694.79492188 C-232.12399422 690.14991995 -241.38962501 680.35586824 -249.97900391 672.86083984 C-251.36998026 671.65380152 -252.77545658 670.46352183 -254.18261719 669.27539062 C-254.91351563 668.65535156 -255.64441406 668.0353125 -256.39746094 667.39648438 C-257.32171875 666.61917969 -257.32171875 666.61917969 -258.26464844 665.82617188 C-259.52246094 664.52148438 -259.52246094 664.52148438 -259.52246094 662.52148438 C-260.08964844 662.28042969 -260.65683594 662.039375 -261.24121094 661.79101562 C-267.44639756 658.33778677 -272.14642242 651.99153252 -276.52246094 646.52148438 C-277.34746094 645.86148438 -278.17246094 645.20148437 -279.02246094 644.52148438 C-281.65890079 642.41233249 -283.56998602 640.26941204 -285.52246094 637.52148438 C-285.52246094 636.86148438 -285.52246094 636.20148437 -285.52246094 635.52148438 C-286.18246094 635.52148438 -286.84246094 635.52148438 -287.52246094 635.52148438 C-289.48227382 633.26740529 -291.32646858 631.00822827 -293.14746094 628.64648438 C-293.66308594 627.99550781 -294.17871094 627.34453125 -294.70996094 626.67382812 C-298.52246094 621.78212839 -298.52246094 621.78212839 -298.52246094 619.52148438 C-299.18246094 619.52148438 -299.84246094 619.52148438 -300.52246094 619.52148438 C-302.11463435 617.53432948 -303.57720533 615.55001601 -305.02246094 613.45898438 C-305.46170898 612.83282227 -305.90095703 612.20666016 -306.35351562 611.56152344 C-313.41995664 601.43714923 -320.34914095 591.21975095 -326.52246094 580.52148438 C-327.47765625 578.87019531 -327.47765625 578.87019531 -328.45214844 577.18554688 C-330.49412306 573.64120689 -332.51130714 570.08340737 -334.52246094 566.52148438 C-335.06128906 565.57015625 -335.60011719 564.61882813 -336.15527344 563.63867188 C-339.42096853 557.77409901 -342.33087428 551.79931881 -345.09277344 545.68164062 C-345.96101231 543.76250061 -346.84695494 541.85106752 -347.76464844 539.95507812 C-351.81792774 531.49087722 -354.71429638 522.62312695 -357.74853516 513.7578125 C-358.67509131 511.0804452 -359.65445776 508.42485319 -360.64746094 505.77148438 C-361.27887004 504.02378659 -361.90359546 502.27366317 -362.52246094 500.52148438 C-362.88726562 499.49023438 -363.25207031 498.45898438 -363.62792969 497.39648438 C-370.45436853 476.89507581 -375.08393008 454.9814176 -377.52246094 433.52148438 C-377.67473145 432.29631104 -377.67473145 432.29631104 -377.83007812 431.04638672 C-381.59212605 399.74543593 -381.68027423 365.78229247 -377.52246094 334.52148438 C-377.39887207 333.58401367 -377.2752832 332.64654297 -377.14794922 331.68066406 C-373.71113241 306.79394456 -367.68620152 282.26448238 -359.52246094 258.52148438 C-358.98987652 256.9407661 -358.4573236 255.36003722 -357.92480469 253.77929688 C-355.57252916 246.88117623 -353.06177372 240.11573637 -349.93261719 233.52539062 C-348.79793114 231.10828932 -347.70976825 228.68378498 -346.64355469 226.23632812 C-342.95419263 217.77171536 -339.14364656 209.52768846 -334.52246094 201.52148438 C-333.88308594 200.39097656 -333.24371094 199.26046875 -332.58496094 198.09570312 C-330.58355325 194.55956443 -328.5569952 191.03867518 -326.52246094 187.52148438 C-326.03003906 186.668125 -325.53761719 185.81476563 -325.03027344 184.93554688 C-318.88814734 174.49046237 -311.97807651 164.49943635 -305.02246094 154.58398438 C-304.60125977 153.97458008 -304.18005859 153.36517578 -303.74609375 152.73730469 C-302.72247541 151.29451422 -301.62859756 149.90202796 -300.52246094 148.52148438 C-299.86246094 148.52148438 -299.20246094 148.52148438 -298.52246094 148.52148438 C-298.28527344 147.99039063 -298.04808594 147.45929688 -297.80371094 146.91210938 C-296.14867709 143.82405842 -294.11697966 141.06863718 -292.02246094 138.27148438 C-291.61898437 137.7171875 -291.21550781 137.16289062 -290.79980469 136.59179688 C-289.75795923 135.19579273 -288.64500682 133.85346046 -287.52246094 132.52148438 C-286.86246094 132.52148438 -286.20246094 132.52148438 -285.52246094 132.52148438 C-285.29558594 131.98523438 -285.06871094 131.44898438 -284.83496094 130.89648438 C-282.58287166 126.8212752 -279.78112966 123.51517021 -276.14746094 120.64648438 C-273.11927916 118.19509913 -270.75999455 115.44363685 -268.22949219 112.49414062 C-266.09285513 110.02502915 -263.9330295 107.72543277 -261.52246094 105.52148438 C-260.86246094 105.52148438 -260.20246094 105.52148438 -259.52246094 105.52148438 C-259.02746094 104.03648438 -259.02746094 104.03648438 -258.52246094 102.52148438 C-257.20214844 101.15429687 -257.20214844 101.15429687 -255.39746094 99.64648438 C-252.62039391 97.30085454 -249.86125283 94.94377811 -247.14746094 92.52539062 C-240.87214375 86.95850994 -234.53230044 81.59853599 -227.70996094 76.70898438 C-227.11747559 76.28254639 -226.52499023 75.8561084 -225.91455078 75.41674805 C-221.7843549 72.52148438 -221.7843549 72.52148438 -219.52246094 72.52148438 C-219.52246094 71.86148438 -219.52246094 71.20148438 -219.52246094 70.52148438 C-217.84277344 69.23242187 -217.84277344 69.23242187 -215.64746094 67.89648438 C-214.92816406 67.45046875 -214.20886719 67.00445312 -213.46777344 66.54492188 C-211.52246094 65.52148438 -211.52246094 65.52148438 -209.52246094 65.52148438 C-209.52246094 64.86148438 -209.52246094 64.20148438 -209.52246094 63.52148438 C-208.95398438 63.21855469 -208.38550781 62.915625 -207.79980469 62.60351562 C-204.10504796 60.59884795 -200.51507008 58.60764281 -197.14746094 56.08398438 C-192.55462735 52.71729188 -187.55057116 50.17392784 -182.52246094 47.52148438 C-181.05350263 46.73541519 -179.58476892 45.94892621 -178.11621094 45.16210938 C-155.85033181 33.28272578 -133.00136511 22.90488192 -108.64892578 16.12304688 C-106.47081256 15.5068734 -104.30288622 14.86263616 -102.13574219 14.20898438 C-93.6591688 11.65315761 -85.19626087 9.32939689 -76.52246094 7.52148438 C-75.43191406 7.28816406 -74.34136719 7.05484375 -73.21777344 6.81445312 C-48.80539116 1.9057268 -24.8368743 -0.15315478 0 0 Z " fill="#121212" transform="translate(379.5224609375,-0.521484375)"/>
<path d="M0 0 C15.51 0 31.02 0 47 0 C45.87501238 12.37486382 45.87501238 12.37486382 44.80430603 18.07481384 C44.4425989 20.02112229 44.4425989 20.02112229 44.07358456 22.00675011 C43.80687705 23.41328984 43.54007672 24.81981198 43.27319336 26.22631836 C42.98889268 27.74541923 42.70504795 29.26460549 42.42161655 30.78386879 C41.6469217 34.92940515 40.8659324 39.07373386 40.08390808 43.21789289 C39.24177299 47.68702109 38.40570675 52.15728474 37.56896973 56.62742615 C36.12227948 64.3519627 34.67206991 72.07583145 33.2194519 79.79925537 C30.92175338 92.01639592 28.63117464 104.2348654 26.34204102 116.45361328 C25.75700031 119.57618159 25.17195062 122.69874821 24.58689958 125.82131457 C24.19384001 127.91918782 23.80079044 130.01706295 23.40775079 132.11493993 C22.21240901 138.49488276 21.01648743 144.87471659 19.82011026 151.25446534 C14.1702192 181.38294368 8.54265025 211.51550988 2.9375 241.65234375 C2.66572492 243.1135372 2.66572492 243.1135372 2.38845944 244.60424972 C-0.09241032 257.94307682 -2.57178725 271.28218123 -5.05074835 284.62136316 C-7.6532682 298.62502004 -10.25645791 312.62855244 -12.86014628 326.6319921 C-13.16279002 328.25972906 -13.46542231 329.88746815 -13.7680428 331.51520944 C-18.81871486 358.68185247 -23.8976734 385.84299131 -29 413 C-44.51 413 -60.02 413 -76 413 C-75.35024873 405.85273603 -74.60221686 399.0737622 -73.25 392.078125 C-73.07616791 391.15637985 -72.90233582 390.2346347 -72.72323608 389.28495789 C-72.15376685 386.2723442 -71.57691215 383.2611964 -71 380.25 C-70.59542346 378.1167017 -70.19129743 375.98331791 -69.78759766 373.84985352 C-67.75966047 363.15027734 -65.70498615 352.45582615 -63.6484375 341.76171875 C-63.07897622 338.80018952 -62.50952699 335.83865798 -61.94018555 332.87710571 C-61.5619339 330.90976823 -61.18351464 328.94246296 -60.80493164 326.97518921 C-58.13076568 313.06886598 -55.5572987 299.14832423 -53.08145142 285.20541382 C-50.65375902 271.53855503 -48.12930175 257.89140012 -45.5625 244.25 C-45.37205109 243.23774353 -45.18160217 242.22548706 -44.98538208 241.18255615 C-44.21841658 237.10686779 -43.45127454 233.03121275 -42.6837616 228.95562744 C-40.75370033 218.702303 -38.84388233 208.44524905 -36.9375 198.1875 C-36.6074401 196.41275703 -36.277362 194.63801744 -35.94726562 192.86328125 C-34.47207546 184.93028153 -32.99894846 176.9969053 -31.53018188 169.06271362 C-30.70853682 164.62497252 -29.88576808 160.18744027 -29.0625 155.75 C-28.81678253 154.42518616 -28.81678253 154.42518616 -28.56610107 153.0736084 C-26.13850013 139.99614621 -23.64731026 126.9317794 -21.12832642 113.87164307 C-17.55560378 95.34497296 -14.12897226 76.79685648 -10.81207275 58.22268677 C-7.34143596 38.78814633 -3.70488625 19.39153228 0 0 Z " fill="#FCFCFC" transform="translate(397,196)"/>
<path d="M0 0 C4.44459939 1.31227786 7.98285498 3.06040677 11.875 5.5625 C16.71739496 8.6235503 21.61890895 11.52726814 26.625 14.3125 C32.43052713 17.54671858 38.19555382 20.84171329 43.9375 24.1875 C51.30944974 28.47762735 58.73642158 32.66151341 66.1875 36.8125 C76.5024621 42.56434929 86.72113611 48.46602864 96.91015625 54.4375 C106.45042463 60.02746485 116.03956069 65.53295465 125.62109375 71.05175781 C129.17631286 73.10166016 132.72904654 75.15581644 136.28125 77.2109375 C138.06832963 78.24423746 139.85547134 79.27742996 141.64263916 80.31057739 C143.33755767 81.29084498 145.03182345 82.27224088 146.72607422 83.25366211 C147.7523291 83.84671143 148.77858398 84.43976074 149.8359375 85.05078125 C150.73876465 85.57325439 151.6415918 86.09572754 152.57177734 86.6340332 C154.67983898 87.81989736 156.83663269 88.91831634 159 90 C159 109.8 159 129.6 159 150 C151.08 154.29 143.16 158.58 135 163 C127.32406765 167.37856606 127.32406765 167.37856606 119.66015625 171.77734375 C113.06520199 175.55214178 106.40818905 179.21344757 99.75 182.875 C90.60609421 187.90430473 81.47552769 192.95488326 72.375 198.0625 C62.64074632 203.52579166 52.88894487 208.95659822 43.12719727 214.37060547 C37.41693808 217.53951971 31.71275195 220.71857165 26.01953125 223.91796875 C24.32957031 224.86736328 24.32957031 224.86736328 22.60546875 225.8359375 C20.47562947 227.03349838 18.34666262 228.23261277 16.21875 229.43359375 C10.87617313 232.43745223 5.50951951 235.31386416 0 238 C-0.35726962 220.9892615 0.09451893 191.49879122 11.86962891 178.28320312 C18.17661155 172.50649982 26.34330694 169.47431551 34.2421875 166.51464844 C40.087333 164.26465451 45.23071888 160.84292322 50.5 157.5 C52.53152056 156.26872089 54.56673073 155.04351008 56.60546875 153.82421875 C57.63591309 153.20595215 58.66635742 152.58768555 59.72802734 151.95068359 C66.95632198 147.64132125 74.22787942 143.40517809 81.49536133 139.16235352 C89.77647041 134.3242917 98.01552178 129.4204102 106.1887207 124.40161133 C106.93468506 123.94810303 107.68064941 123.49459473 108.44921875 123.02734375 C109.09205811 122.63281006 109.73489746 122.23827637 110.3972168 121.83178711 C112 121 112 121 114 121 C111.06941755 117.84131954 108.09201074 115.65973792 104.3984375 113.453125 C103.28170654 112.78128174 102.16497559 112.10943848 101.0144043 111.41723633 C100.42202972 111.06448639 99.82965515 110.71173645 99.21932983 110.34829712 C96.69875814 108.84729845 94.18583295 107.3337029 91.67234802 105.82087708 C90.37160393 105.03814931 89.07046261 104.2560813 87.76893616 103.47465515 C81.37834396 99.63579074 75.03042945 95.72964007 68.6875 91.8125 C60.53699154 86.78558391 52.37233687 81.7833267 44.1875 76.8125 C36.52237519 72.15594167 28.87615406 67.47013666 21.25 62.75 C20.36207764 62.20061768 19.47415527 61.65123535 18.55932617 61.08520508 C9.04929754 55.18904347 9.04929754 55.18904347 8.04858398 51.3515625 C7.76801769 49.77831651 7.50148656 48.2025281 7.24609375 46.625 C7.09970963 45.78590088 6.9533255 44.94680176 6.80250549 44.08227539 C6.3354461 41.3900962 5.88607764 38.6953142 5.4375 36 C5.1320622 34.21463755 4.82543483 32.42947819 4.51757812 30.64453125 C4.07187133 28.05949794 3.6273354 25.47432962 3.18902588 22.88803101 C2.33332274 17.84916196 1.4132046 12.83401939 0.32885742 7.83837891 C-0.140762 5.2131122 -0.13978352 2.65588687 0 0 Z " fill="#FCFCFC" transform="translate(481,284)"/>
<path d="M0 0 C-4.47535367 51.62450274 -4.47535367 51.62450274 -12.94921875 60.05859375 C-16.75477561 62.76521975 -20.89862401 64.40472001 -25.2890625 65.93847656 C-30.24946579 67.88082468 -34.58511065 70.89756597 -39.0625 73.75 C-41.00893429 74.9368702 -42.9582106 76.11909085 -44.91015625 77.296875 C-51.29062575 81.17010271 -57.64636217 85.08296059 -64 89 C-73.37495838 94.77801277 -82.76911498 100.52327098 -92.17993164 106.24267578 C-99.13534167 110.47038927 -106.07615829 114.72077345 -113 119 C-110.44824817 121.86976458 -107.55389813 123.57071417 -104.2421875 125.484375 C-103.67078537 125.81663086 -103.09938324 126.14888672 -102.51066589 126.49121094 C-101.27820749 127.2073433 -100.04455652 127.9214264 -98.80984497 128.63366699 C-95.50955639 130.53780977 -92.21822914 132.45734277 -88.92578125 134.375 C-88.25653122 134.76427673 -87.58728119 135.15355347 -86.89775085 135.55462646 C-80.58538924 139.23049988 -74.31894583 142.97967078 -68.0625 146.75 C-61.29094731 150.82724147 -54.51531451 154.89571255 -47.70239258 158.90356445 C-45.91198708 159.9612446 -44.12656248 161.02740551 -42.34643555 162.10229492 C-37.38571875 165.0845043 -32.3843575 167.84304112 -27.2109375 170.44140625 C-9.344265 179.70570055 -9.344265 179.70570055 -6.67578125 186.58984375 C-5.61646872 190.77440225 -5.33504076 194.9396109 -5.17480469 199.2421875 C-4.85840643 204.23385608 -3.7596985 209.09664387 -2.8125 214 C-1.46139709 221.65159593 -0.3342897 229.22776444 0 237 C-4.16261488 236.40966553 -7.02726814 235.02248336 -10.625 232.875 C-11.8672948 232.14509807 -13.11090839 231.41743842 -14.35546875 230.69140625 C-15.0726709 230.27262207 -15.78987305 229.85383789 -16.52880859 229.42236328 C-21.62830023 226.48720834 -26.7890175 223.66051206 -31.9375 220.8125 C-40.43975609 216.10283088 -48.92242834 211.36095876 -57.375 206.5625 C-66.66703053 201.28996858 -76.01262836 196.11835931 -85.37347412 190.96951294 C-94.3596488 186.0254875 -103.308098 181.01952569 -112.22485352 175.95117188 C-117.66015945 172.8684753 -123.11478477 169.82383752 -128.58984375 166.8125 C-129.24099152 166.45426147 -129.89213928 166.09602295 -130.5630188 165.72692871 C-133.75873042 163.96981398 -136.95627934 162.21614254 -140.15625 160.46679688 C-141.33205552 159.82165882 -142.50783784 159.17647848 -143.68359375 158.53125 C-144.71025146 157.96986328 -145.73690918 157.40847656 -146.79467773 156.83007812 C-147.85243408 156.22615234 -148.91019043 155.62222656 -150 155 C-150.70782623 154.71828445 -151.41565247 154.43656891 -152.14492798 154.14631653 C-154.62621516 153.00072994 -156.18562078 152.0571837 -158 150 C-159.13377022 145.46396694 -158.9304757 141.03664618 -158.78125 136.38671875 C-158.76631683 135.04868458 -158.75493486 133.71060648 -158.74694824 132.37251282 C-158.71649453 128.86141814 -158.63800377 125.35299864 -158.54931641 121.84295654 C-158.46727047 118.25700067 -158.43089764 114.67060958 -158.390625 111.08398438 C-158.30499272 104.0548993 -158.16857699 97.02762486 -158 90 C-156.88052475 89.35516914 -156.88052475 89.35516914 -155.73843384 88.6973114 C-143.84962095 81.84883953 -131.96698998 74.99170774 -120.125 68.0625 C-110.85507201 62.64067002 -101.54168133 57.29795019 -92.21154785 51.98077393 C-83.0871716 46.77954871 -73.99867226 41.51972122 -64.93310547 36.21655273 C-54.44428105 30.0828744 -43.91652399 24.0173048 -33.38769531 17.95263672 C-29.80668054 15.88857242 -26.22734013 13.8216295 -22.6484375 11.75390625 C-20.84814134 10.71407145 -19.04782169 9.67427733 -17.24749756 8.63449097 C-15.53084792 7.64282016 -13.8144935 6.65063837 -12.09814453 5.65844727 C-11.06544434 5.06217529 -10.03274414 4.46590332 -8.96875 3.8515625 C-7.59879883 3.05999756 -7.59879883 3.05999756 -6.20117188 2.25244141 C-2.24249513 0 -2.24249513 0 0 0 Z " fill="#FCFCFC" transform="translate(285,284)"/>
</svg>
